.
 
http://www.scenetime.com    -   SceneTime [ We been having it ] !!!


How come you press harder on a remote control when you know the battery is dead? so you better seed to get speed ;)

        Seed back for speed


...................................NFO:.................................................                                                     
                                                   
                                                         
                                                          
                                                           
                                                          
                                                          
                                                          
                                                           
                                                         
                                                          
                                                        
                                                      
                                     
                                                 
                                                   
                                             
                                              
                                                     
                                                      
                                                      
                                                      
                                                    
                                                     
                                                   
                                                     
                                                     
                                                      
                                                     
                                                      
                                                    
                 ARTiCHOKE                        
                                                
                      
                                                        
                                                      
                                                      
                                               
                                          
                                                   
                                            
                                                    
                                                       
                                                        
                                                      
                                                
                                                        
                                                 
                                              
                                                  
                                                
                                                  
                                        

      
                                
      SPRiNTER proudly presents...     
                                
      
 
 Taras.Bulba.2009.DVDRip.XviD-SPRiNTER

 Date: 2011.07
  http://www.imdb.com/title/tt1242457/

 Genre: Drama
 Audio: Russian
 Subtitles: English



      
                 
      Release notes     
                 
      

 Enjoy!


      
          
       News      
          
      

 We are currently looking for:

 - Suppliers who can provide pre-retail or retail dvds with decent upload!
 - 50Mbit+ dump providers with 1TB+ free space.

 sprinter@hush.com


      
           
     Greetings    
           
      


NTX FiCO HNR CiNEFiLE AEN HUMANiSM TASTE 0MNiDVD


      
           
      Details     
           
      

Format                           : AVI
Format/Info                      : Audio Video Interleave
Duration                         : 1mn 3s
Overall bit rate                 : 769 Kbps
Writing application              : VirtualDubMod 1.5.10.2 (build 2540/release)
Writing library                  : VirtualDubMod build 2540/release

Video
ID                               : 0
Format                           : MPEG-4 Visual
Format profile                   : Advanced Simple@L5
Format settings, BVOP            : Yes
Format settings, QPel            : No
Format settings, GMC             : No warppoints
Format settings, Matrix          : Default (H.263)
Muxing mode                      : Packed bitstream
Codec ID                         : XVID
Codec ID/Hint                    : XviD
Duration                         : 1mn 3s
Bit rate                         : 310 Kbps
Width                            : 624 pixels
Height                           : 272 pixels
Display aspect ratio             : 2.25:1
Frame rate                       : 23.976 fps
Color space                      : YUV
Chroma subsampling               : 4:2:0
Bit depth                        : 8 bits
Scan type                        : Progressive
Compression mode                 : Lossy
Bits/(Pixel*Frame)               : 0.076
Stream size                      : 2.35 MiB (40%)
Writing library                  : XviD 58

Audio
ID                               : 1
Format                           : AC-3
Format/Info                      : Audio Coding 3
Mode extension                   : CM (complete main)
Codec ID                         : 2000
Duration                         : 1mn 3s
Bit rate mode                    : Constant
Bit rate                         : 448 Kbps
Channel(s)                       : 6 channels
Channel positions                : Front: L C R, Side: L R, LFE
Sampling rate                    : 48.0 KHz
Bit depth                        : 16 bits
Compression mode                 : Lossy
Delay relative to video          : 9ms
Stream size                      : 3.39 MiB (58%)
Alignment                        : Split accross interleaves
Interleave, duration             : 42 ms (1.01 video frame)
Interleave, preload duration     : 500 ms